<?xml version="1.0" encoding="UTF-8"?>
<svg version="1.1" xmlns="http://www.w3.org/2000/svg" width="159" height="38">
<path d="M0 0 C52.47 0 104.94 0 159 0 C159 12.54 159 25.08 159 38 C106.53 38 54.06 38 0 38 C0 25.46 0 12.92 0 0 Z " fill="#FDFCFC" transform="translate(0,0)"/>
<path d="M0 0 C1.65 0 3.3 0 5 0 C5 2.64 5 5.28 5 8 C7.64 8 10.28 8 13 8 C13 5.36 13 2.72 13 0 C14.65 0 16.3 0 18 0 C18 6.93 18 13.86 18 21 C16.35 21 14.7 21 13 21 C13 18.03 13 15.06 13 12 C10.36 12 7.72 12 5 12 C5 14.97 5 17.94 5 21 C3.35 21 1.7 21 0 21 C0 14.07 0 7.14 0 0 Z " fill="#161226" transform="translate(14,8)"/>
<path d="M0 0 C1.65 0 3.3 0 5 0 C6.86540627 4.70406799 8.36843005 8.94744036 9 14 C9.66 14 10.32 14 11 14 C11.12375 12.989375 11.2475 11.97875 11.375 10.9375 C11.98085335 7.12062388 12.87193912 3.68499888 14 0 C15.65 0 17.3 0 19 0 C17.55613874 7.21930632 15.42211826 14.05110733 13 21 C11.02 21 9.04 21 7 21 C4.69 14.07 2.38 7.14 0 0 Z " fill="#F83E12" transform="translate(71,8)"/>
<path d="M0 0 C2.375 1.125 2.375 1.125 4 3 C4.25 6.1875 4.25 6.1875 4 9 C1.03 9 -1.94 9 -5 9 C-4.67 9.66 -4.34 10.32 -4 11 C-1.69 11 0.62 11 3 11 C3 11.99 3 12.98 3 14 C-0.09173752 15.54586876 -2.59429552 15.29359521 -6 15 C-8.4375 13.4375 -8.4375 13.4375 -10 11 C-10.56783945 7.02512383 -10.62340519 4.93510779 -8.375 1.5625 C-5.30182885 -0.45932313 -3.61752119 -0.52755517 0 0 Z " fill="#F84B20" transform="translate(100,14)"/>
<path d="M0 0 C2.375 1.125 2.375 1.125 4 3 C4.25 6.1875 4.25 6.1875 4 9 C1.03 9 -1.94 9 -5 9 C-4.67 9.66 -4.34 10.32 -4 11 C-1.69 11 0.62 11 3 11 C3 11.99 3 12.98 3 14 C-0.09173752 15.54586876 -2.59429552 15.29359521 -6 15 C-8.4375 13.4375 -8.4375 13.4375 -10 11 C-10.56783945 7.02512383 -10.62340519 4.93510779 -8.375 1.5625 C-5.30182885 -0.45932313 -3.61752119 -0.52755517 0 0 Z " fill="#252335" transform="translate(66,14)"/>
<path d="M0 0 C2.375 1.6875 2.375 1.6875 4 4 C4.25 6.75 4.25 6.75 4 9 C1.03 9 -1.94 9 -5 9 C-4.67 9.66 -4.34 10.32 -4 11 C-1.69 11 0.62 11 3 11 C3 11.99 3 12.98 3 14 C-0.09173752 15.54586876 -2.59429552 15.29359521 -6 15 C-8.4375 13.4375 -8.4375 13.4375 -10 11 C-10.56783945 7.02512383 -10.62340519 4.93510779 -8.375 1.5625 C-5.28314769 -0.47161336 -3.63632575 -0.60605429 0 0 Z " fill="#F84921" transform="translate(142,14)"/>
<path d="M0 0 C0.33 1.32 0.66 2.64 1 4 C-1.97 3.505 -1.97 3.505 -5 3 C-3.49336217 6.01327566 -0.96833589 6.61056618 2 8 C1.6875 10.375 1.6875 10.375 1 13 C-2.6441774 15.4294516 -4.71241272 15.16179575 -9 15 C-9.33 13.35 -9.66 11.7 -10 10 C-7.69 10.66 -5.38 11.32 -3 12 C-3.88611695 9.75427384 -3.88611695 9.75427384 -6.5 8.625 C-9 7 -9 7 -10 5 C-10 3 -10 3 -9 1.25 C-6.03327697 -0.6042019 -3.41502959 -0.19330356 0 0 Z " fill="#F84114" transform="translate(128,14)"/>
<path d="M0 0 C3.3 0 6.6 0 10 0 C10 1.32 10 2.64 10 4 C8.68 4.33 7.36 4.66 6 5 C5.67 8.3 5.34 11.6 5 15 C3.35 15 1.7 15 0 15 C0 10.05 0 5.1 0 0 Z " fill="#F84312" transform="translate(107,14)"/>
<path d="M0 0 C3.3 0 6.6 0 10 0 C10 1.32 10 2.64 10 4 C8.68 4.33 7.36 4.66 6 5 C5.67 8.3 5.34 11.6 5 15 C3.35 15 1.7 15 0 15 C0 10.05 0 5.1 0 0 Z " fill="#181531" transform="translate(45,14)"/>
<path d="M0 0 C1.32 0 2.64 0 4 0 C4 4.95 4 9.9 4 15 C2.68 15 1.36 15 0 15 C0 10.05 0 5.1 0 0 Z " fill="#02062C" transform="translate(37,14)"/>
<path d="M0 0 C1.98 0 3.96 0 6 0 C6 1.32 6 2.64 6 4 C4.35 4 2.7 4 1 4 C0.67 2.68 0.34 1.36 0 0 Z " fill="#F84224" transform="translate(111,14)"/>
<path d="M0 0 C1.98 0 3.96 0 6 0 C6 1.32 6 2.64 6 4 C4.35 4 2.7 4 1 4 C0.67 2.68 0.34 1.36 0 0 Z " fill="#17274A" transform="translate(49,14)"/>
<path d="M0 0 C1.98 0.495 1.98 0.495 4 1 C3.67 2.32 3.34 3.64 3 5 C1.68 4.67 0.36 4.34 -1 4 C-0.67 2.68 -0.34 1.36 0 0 Z " fill="#26181E" transform="translate(37,6)"/>
</svg>
